<?xml version="1.0" encoding="utf-8"?>
<!-- Generator: Adobe Illustrator 22.0.1, SVG Export Plug-In . SVG Version: 6.00 Build 0)  -->
<svg version="1.1" id="Layer_1" xmlns="http://www.w3.org/2000/svg" xmlns:xlink="http://www.w3.org/1999/xlink" x="0px" y="0px"
	 viewBox="0 0 484 92.7" style="enable-background:new 0 0 484 92.7;" xml:space="preserve" preserveAspectRatio="none">
<style type="text/css">
	.st0{fill:#15002D;}
	.st1{fill:#FFFFFF;}
	.st2{display:none;fill:none;}
	.st3{fill:#303030;}
	.st4{fill:none;}
	.st5{font-family:'AzonixRegular';}
	.st6{font-size:11px;}
</style>
<g id="Layer_2_copy_2">
	<path class="st0" d="M445.7,76.7H0V0h445.7C466.8,0,484,17.2,484,38.3l0,0C484,59.5,466.8,76.7,445.7,76.7z"/>
</g>
<g id="Layer_2_copy_3_1_">
	<path class="st1" d="M323.6,0h-10.4c15.4,11.8,30.9,23.6,42.8,39.7c10.4,12.9,21.1,25.2,32,37h14C384,46,349.1,25.9,323.6,0z"/>
	<path class="st1" d="M304.2,0H0v76.7h379c-10.9-11.8-21.6-24.1-32-37C335.1,23.6,319.7,11.8,304.2,0z"/>
	<path class="st2" d="M445.7,0h-131c25.4,25.9,60.4,46,78.3,76.7h52.7c21.2,0,38.3-17.2,38.3-38.3l0,0C484,17.2,466.8,0,445.7,0z"/>
</g>
<g id="Layer_2_copy_3">
	<path class="st1" d="M362.6,0h-10.4c15.4,11.8,30.9,23.6,42.8,39.7c10.4,12.9,21.1,25.2,32,37h14C423,46,388.1,25.9,362.6,0z"/>
	<path class="st1" d="M343.2,0H39v76.7h379c-10.9-11.8-21.6-24.1-32-37C374.1,23.6,358.7,11.8,343.2,0z"/>
	<path class="st2" d="M484.7,0h-131c25.4,25.9,60.4,46,78.3,76.7h52.7c21.2,0,38.3-17.2,38.3-38.3l0,0C523,17.2,505.8,0,484.7,0z"/>
</g>
<g id="Layer_2_1_">
	<path class="st3" d="M455,92.7H0V16h455c16,0,29,13,29,29v18.7C484,79.7,471,92.7,455,92.7z"/>
</g>
<g id="Layer_5">
	<rect x="396.6" y="3.5" class="st4" width="51.1" height="9.6"/>
	<text transform="matrix(0.7711 0 0 1 399.5674 12.2393)" class="st1 st5 st6">SPEAKING</text>
</g>
</svg>
