<?xml version="1.0" encoding="utf-8"?>
<!-- Generator: Adobe Illustrator 22.0.1, SVG Export Plug-In . SVG Version: 6.00 Build 0)  -->
<svg version="1.1" id="Capa_1" xmlns="http://www.w3.org/2000/svg" xmlns:xlink="http://www.w3.org/1999/xlink" x="0px" y="0px"
	 viewBox="0 0 512 512" style="enable-background:new 0 0 512 512;" xml:space="preserve">
<style type="text/css">
	.st0{fill:#FFFFFF;}
</style>
<path class="st0" d="M256,512C114.8,512,0,397.2,0,256S114.8,0,256,0s256,114.8,256,256S397.2,512,256,512z"/>
<g>
	<path d="M452.3,264.5L452.3,264.5c-4.7,0-8.5-3.8-8.5-8.5c0-52.7-23.2-101.9-65.3-138.6c-3.6-3.1-3.9-8.5-0.8-12
		c3.1-3.6,8.5-3.9,12-0.8c45.9,40,71.2,93.8,71.2,151.5C460.8,260.7,457,264.5,452.3,264.5z"/>
	<path d="M324.1,80.4c-1,0-2-0.2-3-0.5c-20.8-7.7-42.7-11.6-65.1-11.6c-4.7,0-8.5-3.8-8.5-8.5c0-4.7,3.8-8.5,8.5-8.5l0,0
		c24.4,0,48.3,4.3,71,12.6c4.4,1.6,6.7,6.5,5.1,11C330.8,78.3,327.5,80.4,324.1,80.4z"/>
	<path d="M128,409.6c-1.9,0-3.9-0.6-5.5-2C75.8,368.5,51.2,316.1,51.2,256c0-4.7,3.8-8.5,8.5-8.5l0,0c4.7,0,8.5,3.8,8.5,8.5
		c0,54.9,22.5,102.8,65.2,138.5c3.6,3,4.1,8.4,1.1,12C132.9,408.6,130.4,409.6,128,409.6z"/>
	<path d="M256,460.8c-23,0-45.6-3.8-67.1-11.2c-4.5-1.5-6.8-6.4-5.3-10.9c1.5-4.5,6.4-6.8,10.9-5.3c19.7,6.8,40.4,10.3,61.5,10.3
		c4.7,0,8.5,3.8,8.5,8.5C264.5,457,260.7,460.8,256,460.8z"/>
</g>
<g>
	<path d="M230.4,341.3h-51.2c-4.7,0-8.5-3.8-8.5-8.5V179.2c0-4.7,3.8-8.5,8.5-8.5h51.2c4.7,0,8.5,3.8,8.5,8.5v153.6
		C238.9,337.5,235.1,341.3,230.4,341.3z"/>
	<path d="M332.8,341.3h-51.2c-4.7,0-8.5-3.8-8.5-8.5V179.2c0-4.7,3.8-8.5,8.5-8.5h51.2c4.7,0,8.5,3.8,8.5,8.5v153.6
		C341.3,337.5,337.5,341.3,332.8,341.3z"/>
</g>
</svg>
