<svg height="291pt" viewBox="0 0 291 291.4" width="291pt" xmlns="http://www.w3.org/2000/svg"><path d="m22.289062 0h247.222657c12.199219 0 22.089843 9.890625 22.089843 22.089844v247.222656c0 12.199219-9.890624 22.085938-22.089843 22.085938h-247.222657c-12.199218 0-22.089843-9.886719-22.089843-22.085938v-247.222656c0-12.199219 9.890625-22.089844 22.089843-22.089844zm0 0" fill="#857e87"/><path d="m269.5 0h-20.199219c12.203125 0 22.09375 9.894531 22.085938 22.101562v247.199219c0 12.199219-9.886719 22.085938-22.085938 22.085938h20.199219c12.199219 0 22.089844-9.886719 22.089844-22.085938v-247.199219c.003906-12.207031-9.886719-22.101562-22.089844-22.101562zm0 0" fill="#736b75"/><path d="m71.695312 69.894531h40.378907c7.523437 0 13.617187 6.097657 13.617187 13.617188v124.378906c0 7.519531-6.09375 13.617187-13.617187 13.617187h-40.378907c-7.519531 0-13.617187-6.097656-13.617187-13.617187v-124.378906c0-7.519531 6.097656-13.617188 13.617187-13.617188zm0 0" fill="#ff8b5a"/><path d="m179.722656 69.894531h40.382813c7.519531 0 13.613281 6.097657 13.613281 13.617188v124.378906c0 7.519531-6.09375 13.617187-13.613281 13.617187h-40.382813c-7.519531 0-13.613281-6.097656-13.613281-13.617187v-124.378906c0-7.519531 6.09375-13.617188 13.613281-13.617188zm0 0" fill="#ff8b5a"/><g fill="#f2754e"><path d="m112.074219 69.894531h-20.210938c7.511719 0 13.601563 6.089844 13.601563 13.601563v124.398437c0 7.511719-6.089844 13.601563-13.601563 13.601563h20.207031c7.511719 0 13.601563-6.089844 13.601563-13.601563v-124.398437c0-7.507813-6.085937-13.597656-13.597656-13.601563zm0 0"/><path d="m220.109375 69.894531h-20.210937c7.511718 0 13.601562 6.089844 13.601562 13.601563v124.398437c0 7.511719-6.089844 13.601563-13.601562 13.601563h20.210937c7.507813 0 13.597656-6.089844 13.597656-13.601563v-124.398437c0-7.511719-6.089843-13.601563-13.597656-13.601563zm0 0"/></g></svg>