<?xml version="1.0" encoding="utf-8"?>
<!-- Generator: Adobe Illustrator 22.0.1, SVG Export Plug-In . SVG Version: 6.00 Build 0)  -->
<svg version="1.1" xmlns="http://www.w3.org/2000/svg" xmlns:xlink="http://www.w3.org/1999/xlink" x="0px" y="0px"
	 viewBox="0 0 100 100" style="enable-background:new 0 0 100 100;" xml:space="preserve">
<style type="text/css">
	.st0{fill:#FFA72B;}
	.st1{display:none;}
</style>
<g id="Layer_1">
	<g>
		<path class="st0" d="M50,0L50,0C22.4,0,0,22.4,0,50v0c0,27.6,22.4,50,50,50h0c27.6,0,50-22.4,50-50v0C100,22.4,77.6,0,50,0z
			 M90,50c0,22.1-17.9,40-40,40h0c-22.1,0-40-17.9-40-40v0c0-22.1,17.9-40,40-40h0C72.1,10,90,27.9,90,50L90,50z"/>
	</g>
</g>
<g id="Layer_1_copy" class="st1">
</g>
<g id="Layer_1_copy_2">
	<g>
		<path class="st0" d="M50,80L50,80c-16.6,0-30-13.4-30-30v0c0-16.6,13.4-30,30-30h0c16.6,0,30,13.4,30,30v0C80,66.6,66.6,80,50,80z
			"/>
	</g>
</g>
</svg>
