<?xml version="1.0" encoding="utf-8"?>
<!-- Generator: Adobe Illustrator 22.0.1, SVG Export Plug-In . SVG Version: 6.00 Build 0)  -->
<svg version="1.1" xmlns="http://www.w3.org/2000/svg" xmlns:xlink="http://www.w3.org/1999/xlink" x="0px" y="0px"
	 viewBox="0 0 484 92.7" style="enable-background:new 0 0 484 92.7;" xml:space="preserve" preserveAspectRatio="none">
<style type="text/css">
	.st0{fill:#FFAB05;}
	.st1{fill:#FFFDA5;}
	.st2{fill:#FFFAD6;}
	.st3{display:none;fill:#FFFAD6;}
	.st4{fill:#303030;}
	.st5{fill:none;}
	.st6{fill:#FFFFFF;}
	.st7{font-family:'AzonixRegular';}
	.st8{font-size:11px;}
</style>
<g id="Layer_2_copy_2">
	<path class="st0" d="M445.7,76.7H0V0h445.7C466.8,0,484,17.2,484,38.3v0C484,59.5,466.8,76.7,445.7,76.7z"/>
</g>
<g id="Layer_2_copy_3">
	<path class="st1" d="M323.6,0h-10.4c15.4,11.8,30.9,23.6,42.8,39.7c10.4,12.9,21.1,25.2,32,37h14C384,46,349.1,25.9,323.6,0z"/>
	<path class="st2" d="M304.2,0H0v76.7h379c-10.9-11.8-21.6-24.1-32-37C335.1,23.6,319.7,11.8,304.2,0z"/>
	<path class="st3" d="M445.7,0h-131c25.4,25.9,60.4,46,78.3,76.7h52.7c21.2,0,38.3-17.2,38.3-38.3v0C484,17.2,466.8,0,445.7,0z"/>
</g>
<g id="Layer_2">
	<path class="st4" d="M455,92.7H0V16h455c16,0,29,13,29,29v18.7C484,79.7,471,92.7,455,92.7z"/>
</g>
<g id="Layer_5">
	<rect x="387" y="3.5" class="st5" width="66.3" height="9.6"/>
	<text transform="matrix(1 0 0 1 387 11.2395)" class="st6 st7 st8">SPEAKING</text>
</g>
</svg>
