<svg height="512pt" viewBox="-65 0 512 512" width="512pt" xmlns="http://www.w3.org/2000/svg"><path d="m96.785156 397.058594c12.503906-8.960938 20.675782-23.597656 20.675782-40.121094 0-27.207031-22.136719-49.339844-49.34375-49.339844-27.207032 0-49.34375 22.132813-49.34375 49.339844 0 16.523438 8.171874 31.160156 20.671874 40.121094-23.269531 10.84375-39.445312 34.449218-39.445312 61.769531v53.171875h136.234375v-53.175781c0-27.320313-16.175781-50.921875-39.449219-61.765625zm0 0"/><path d="m342.453125 397.058594c12.503906-8.960938 20.675781-23.597656 20.675781-40.121094 0-27.207031-22.136718-49.339844-49.34375-49.339844-27.207031 0-49.34375 22.132813-49.34375 49.339844 0 16.523438 8.171875 31.160156 20.671875 40.121094-23.269531 10.84375-39.445312 34.445312-39.445312 61.765625v53.175781h136.234375v-53.175781c0-27.320313-16.175782-50.921875-39.449219-61.765625zm0 0"/><path d="m318.777344 210.144531h38.101562v-210.144531h-331.855468v210.144531h38.101562v58.984375l89.550781-58.984375h76.550781l89.550782 58.984375zm-52.765625-90.074219h-30.023438v-30h30.023438zm-60.046875-30v30h-30.023438v-30zm-60.050782 0v30h-30.023437v-30zm0 0"/></svg>