<?xml version="1.0" encoding="iso-8859-1"?>
<!-- Generator: Adobe Illustrator 19.0.0, SVG Export Plug-In . SVG Version: 6.00 Build 0)  -->
<svg version="1.1" id="Layer_1" xmlns="http://www.w3.org/2000/svg" xmlns:xlink="http://www.w3.org/1999/xlink" x="0px" y="0px"
	 viewBox="0 0 512 512" style="enable-background:new 0 0 512 512;" xml:space="preserve">
<path style="fill:#40596B;" d="M505.6,78.933L433.067,6.4c-4.267-4.267-9.6-6.4-14.933-6.4h-396.8C9.6,0,0,9.6,0,21.333v469.333
	C0,502.4,9.6,512,21.333,512h469.333C502.4,512,512,502.4,512,490.667v-396.8C512,88.533,509.867,83.2,505.6,78.933z"/>
<path style="fill:#ACB3BA;" d="M88.533,0v157.867c0,11.733,9.6,21.333,21.333,21.333h292.267c11.733,0,21.333-9.6,21.333-21.333V0
	H88.533z"/>
<path style="fill:#F2F2F2;" d="M109.867,247.467h292.267c11.733,0,21.333,9.6,21.333,21.333v189.867
	c0,11.733-9.6,21.333-21.333,21.333H109.867c-11.733,0-21.333-9.6-21.333-21.333V268.8
	C88.533,257.067,98.133,247.467,109.867,247.467z"/>
<rect x="304" y="33.067" style="fill:#40596B;" width="86.4" height="113.067"/>
<g>
	<rect x="121.6" y="353.067" style="fill:#4CDBC4;" width="268.8" height="21.333"/>
	<rect x="121.6" y="418.133" style="fill:#4CDBC4;" width="268.8" height="21.333"/>
	<rect x="121.6" y="286.933" style="fill:#4CDBC4;" width="268.8" height="21.333"/>
</g>
<g>
</g>
<g>
</g>
<g>
</g>
<g>
</g>
<g>
</g>
<g>
</g>
<g>
</g>
<g>
</g>
<g>
</g>
<g>
</g>
<g>
</g>
<g>
</g>
<g>
</g>
<g>
</g>
<g>
</g>
</svg>
