<?xml version="1.0" encoding="utf-8"?>
<!-- Generator: Adobe Illustrator 22.0.1, SVG Export Plug-In . SVG Version: 6.00 Build 0)  -->
<svg version="1.1" xmlns="http://www.w3.org/2000/svg" xmlns:xlink="http://www.w3.org/1999/xlink" x="0px" y="0px"
	 viewBox="0 0 54 7" style="enable-background:new 0 0 54 7;" xml:space="preserve" preserveAspectRatio="none">
<style type="text/css">
	.st0{fill:#FFCA15;}
	.st1{fill:#FFCB1D;}
	.st2{fill:#2D2D2D;}
	.st3{fill:#424242;}
</style>
<g id="Layer_5">
	<path class="st0" d="M52.3,6.5H23.9c-0.9,0-1.7-0.8-1.7-1.7V2.2c0-0.9,0.8-1.7,1.7-1.7h28.4c0.9,0,1.7,0.8,1.7,1.7v2.6
		C54,5.7,53.2,6.5,52.3,6.5z"/>
</g>
<g id="Layer_1_copy_3">
	<g id="Layer_1_copy_3_1_">
	</g>
	<polygon class="st1" points="22.9,0 0,0 3.8,7 22.9,7 41.9,7 45.7,0 	"/>
</g>
<g id="Layer_1">
	<g id="Layer_1_copy">
	</g>
	<polygon class="st2" points="25.4,0 2.5,0 6.4,7 25.4,7 44.5,7 48.3,0 	"/>
</g>
<g id="Layer_1_copy_2">
	<g id="Layer_1_copy_2_1_">
	</g>
	<polygon class="st3" points="25.4,0.5 4.4,0.5 7.9,6.5 25.4,6.5 42.9,6.5 46.4,0.5 	"/>
</g>
</svg>
